<?xml version="1.0" encoding="UTF-8"?>
<svg version="1.1" xmlns="http://www.w3.org/2000/svg" width="512" height="512">
<path d="M0 0 C1.39624163 -0.00424107 1.39624163 -0.00424107 2.82069016 -0.00856781 C7.76636777 -0.02345946 12.71201708 -0.03274683 17.65771484 -0.03710938 C21.65390358 -0.04145271 25.64987138 -0.05519669 29.64599609 -0.078125 C98.95858974 -0.46754187 180.07076316 1.42739375 232.765625 52.81640625 C276.18680367 98.46951467 281.16376434 171.39986432 281.2890625 231.1171875 C281.29188988 232.04801525 281.29471725 232.978843 281.29763031 233.93787766 C281.31252196 238.88355527 281.32180933 243.82920458 281.32617188 248.77490234 C281.33051521 252.77109108 281.34425919 256.76705888 281.3671875 260.76318359 C281.75660437 330.07577724 279.86166875 411.18795066 228.47265625 463.8828125 C182.81954783 507.30399117 109.88919818 512.28095184 50.171875 512.40625 C49.24104725 512.40907738 48.3102195 512.41190475 47.35118484 512.41481781 C42.40550723 512.42970946 37.45985792 512.43899683 32.51416016 512.44335938 C28.51797142 512.44770271 24.52200362 512.46144669 20.52587891 512.484375 C-48.78671474 512.87379187 -129.89888816 510.97885625 -182.59375 459.58984375 C-226.01492867 413.93673533 -230.99188934 341.00638568 -231.1171875 281.2890625 C-231.12001488 280.35823475 -231.12284225 279.427407 -231.12575531 278.46837234 C-231.14064696 273.52269473 -231.14993433 268.57704542 -231.15429688 263.63134766 C-231.15864021 259.63515892 -231.17238419 255.63919112 -231.1953125 251.64306641 C-231.58472937 182.33047276 -229.68979375 101.21829934 -178.30078125 48.5234375 C-132.64767283 5.10225883 -59.71732318 0.12529816 0 0 Z " fill="#5C2FDB" transform="translate(230.9140625,-0.203125)"/>
<path d="M0 0 C10.89 0 21.78 0 33 0 C39.7700372 16.925093 39.7700372 16.925093 42.5 25 C44.9784015 32.20870251 47.63569035 39.30148584 50.54296875 46.34765625 C52.47547987 51.19188653 54.2362574 56.09224911 56 61 C60.0718494 72.29660134 64.14962403 83.58256838 68.56567383 94.75024414 C70.81928813 100.46157241 72.91993644 106.22343796 75 112 C80.7049519 127.83296895 80.7049519 127.83296895 86.6875 143.5625 C87.11458252 144.65630981 87.11458252 144.65630981 87.55029297 145.7722168 C88.86965109 149.14114141 90.20107532 152.50483642 91.546875 155.86328125 C92.00578125 157.02214844 92.4646875 158.18101562 92.9375 159.375 C93.33839844 160.37273437 93.73929688 161.37046875 94.15234375 162.3984375 C95 165 95 165 95 169 C82.79 169 70.58 169 58 169 C56.906875 165.57625 55.81375 162.1525 54.6875 158.625 C54.34936279 157.56748535 54.01122559 156.5099707 53.6628418 155.42041016 C52.76892292 152.61556075 51.88258338 149.80843658 51 147 C50.70303223 146.05866211 50.40606445 145.11732422 50.10009766 144.14746094 C49.82601074 143.2609082 49.55192383 142.37435547 49.26953125 141.4609375 C49.02436768 140.67251465 48.7792041 139.8840918 48.52661133 139.07177734 C48 137 48 137 48 134 C27.54 134 7.08 134 -14 134 C-14.99 137.96 -15.98 141.92 -17 146 C-17.64357162 148.07965866 -18.31531292 150.15137415 -19.04296875 152.203125 C-19.51899536 153.55905762 -19.51899536 153.55905762 -20.00463867 154.94238281 C-20.39498291 156.03389648 -20.78532715 157.12541016 -21.1875 158.25 C-22.445625 161.7975 -23.70375 165.345 -25 169 C-37.21 169 -49.42 169 -62 169 C-56.13889289 151.41667866 -50.04926916 133.92118663 -43.0625 116.75 C-40.33224857 109.98869673 -37.9122138 103.14265413 -35.53100586 96.25170898 C-33.61455644 90.71664838 -31.5791859 85.24677625 -29.44140625 79.79296875 C-27.37842578 74.44197085 -25.49045808 69.02566281 -23.5625 63.625 C-20.68862149 55.58214804 -17.69117545 47.63261449 -14.4609375 39.7265625 C-12.32732997 34.39108029 -10.49566051 28.94557692 -8.62036133 23.51538086 C-5.88895157 15.62014979 -2.96509216 7.81048668 0 0 Z " fill="#FCFCFE" transform="translate(173,166)"/>
<path d="M0 0 C45.21 0 90.42 0 137 0 C137 8.58 137 17.16 137 26 C119.84 26 102.68 26 85 26 C85 72.86 85 119.72 85 168 C73.78 168 62.56 168 51 168 C51 121.14 51 74.28 51 26 C34.17 26 17.34 26 0 26 C0 17.42 0 8.84 0 0 Z " fill="#FEFEFE" transform="translate(260,167)"/>
<path d="M0 0 C2.84266014 1.42133007 3.01500254 3.46480177 3.97923279 6.3455658 C4.34336021 7.47195213 4.34336021 7.47195213 4.71484375 8.62109375 C4.97125137 9.39501968 5.227659 10.16894562 5.49183655 10.96632385 C6.31408202 13.45446356 7.12572554 15.94592692 7.9375 18.4375 C8.48046383 20.0828989 9.02407619 21.72808394 9.56835938 23.37304688 C11.94084649 30.56515945 14.272581 37.76205472 16.40698242 45.02905273 C17.54495978 48.81122286 18.90458557 52.51885614 20.23046875 56.23828125 C21 59 21 59 21 64 C7.47 64 -6.06 64 -20 64 C-18.7394951 57.69747548 -17.5269279 52.03198619 -15.4375 46.0625 C-14.90841528 44.51317064 -14.37980209 42.96368021 -13.8515625 41.4140625 C-13.56055664 40.56618164 -13.26955078 39.71830078 -12.96972656 38.84472656 C-11.05222192 33.21966007 -9.1876744 27.57678595 -7.3125 21.9375 C-6.55878533 19.6757174 -5.80488669 17.41399609 -5.05078125 15.15234375 C-4.70225098 14.10675293 -4.3537207 13.06116211 -3.99462891 11.98388672 C-2.66308594 7.98925781 -1.33154297 3.99462891 0 0 Z " fill="#6034DB" transform="translate(189,208)"/>
</svg>
